<svg width="51" height="52" viewBox="0 0 51 52" fill="none" xmlns="http://www.w3.org/2000/svg">
<path d="M0 26.0098C0 11.9265 11.4167 0.509766 25.5 0.509766C39.5833 0.509766 51 11.9265 51 26.0098C51 40.093 39.5833 51.5098 25.5 51.5098C11.4167 51.5098 0 40.093 0 26.0098Z" fill="white"/>
<mask id="mask0_24_235" style="mask-type:alpha" maskUnits="userSpaceOnUse" x="0" y="0" width="51" height="52">
<path fill-rule="evenodd" clip-rule="evenodd" d="M0 26.0098C0 11.9265 11.4167 0.509766 25.5 0.509766C39.5833 0.509766 51 11.9265 51 26.0098C51 40.093 39.5833 51.5098 25.5 51.5098C11.4167 51.5098 0 40.093 0 26.0098Z" fill="white"/>
</mask>
<g mask="url(#mask0_24_235)">
<path fill-rule="evenodd" clip-rule="evenodd" d="M25.5012 12.4097C21.8076 12.4097 21.3441 12.4258 19.8934 12.4918C18.4455 12.5581 17.4573 12.7874 16.5925 13.1237C15.698 13.471 14.9393 13.9357 14.1833 14.6919C13.4268 15.4479 12.9621 16.2067 12.6136 17.1009C12.2765 17.9659 12.047 18.9545 11.9818 20.4017C11.9169 21.8524 11.8999 22.3162 11.8999 26.0098C11.8999 29.7034 11.9163 30.1655 11.9821 31.6162C12.0487 33.064 12.2779 34.0523 12.6139 34.9171C12.9616 35.8116 13.4262 36.5703 14.1825 37.3263C14.9381 38.0828 15.6969 38.5486 16.5908 38.896C17.4561 39.2323 18.4447 39.4615 19.8923 39.5278C21.3429 39.5938 21.8062 39.61 25.4995 39.61C29.1933 39.61 29.6555 39.5938 31.1061 39.5278C32.554 39.4615 33.5434 39.2323 34.4087 38.896C35.3029 38.5486 36.0606 38.0828 36.8162 37.3263C37.5727 36.5703 38.0374 35.8116 38.3859 34.9173C38.7202 34.0523 38.9497 33.0638 39.0177 31.6165C39.0829 30.1658 39.0999 29.7034 39.0999 26.0098C39.0999 22.3162 39.0829 21.8527 39.0177 20.402C38.9497 18.9542 38.7202 17.9659 38.3859 17.1012C38.0374 16.2067 37.5727 15.4479 36.8162 14.6919C36.0597 13.9354 35.3032 13.4708 34.4079 13.1237C33.5408 12.7874 32.552 12.5581 31.1042 12.4918C29.6535 12.4258 29.1916 12.4097 25.4969 12.4097H25.5012ZM25.0475 14.8604H25.0479L25.5011 14.8605C29.1324 14.8605 29.5628 14.8735 30.9967 14.9387C32.3227 14.9994 33.0424 15.2209 33.5218 15.4071C34.1565 15.6536 34.609 15.9482 35.0847 16.4242C35.5607 16.9003 35.8554 17.3536 36.1024 17.9883C36.2886 18.4671 36.5105 19.1868 36.5708 20.5128C36.636 21.9465 36.6501 22.3771 36.6501 26.0067C36.6501 29.6362 36.636 30.0669 36.5708 31.5006C36.5102 32.8266 36.2886 33.5463 36.1024 34.0251C35.8559 34.6598 35.5607 35.1117 35.0847 35.5874C34.6087 36.0634 34.1568 36.3581 33.5218 36.6046C33.043 36.7916 32.3227 37.0126 30.9967 37.0732C29.563 37.1384 29.1324 37.1526 25.5011 37.1526C21.8696 37.1526 21.4392 37.1384 20.0055 37.0732C18.6795 37.012 17.9599 36.7905 17.4802 36.6043C16.8455 36.3578 16.3922 36.0631 15.9162 35.5871C15.4401 35.1111 15.1455 34.6589 14.8984 34.024C14.7123 33.5451 14.4904 32.8254 14.4301 31.4994C14.3649 30.0658 14.3519 29.6351 14.3519 26.0033C14.3519 22.3715 14.3649 21.9431 14.4301 20.5094C14.4907 19.1834 14.7123 18.4637 14.8984 17.9843C15.1449 17.3496 15.4401 16.8963 15.9162 16.4203C16.3922 15.9443 16.8455 15.6496 17.4802 15.4025C17.9596 15.2155 18.6795 14.9945 20.0055 14.9336C21.2602 14.8769 21.7464 14.8599 24.2811 14.8571V14.8605C24.5179 14.8601 24.7726 14.8603 25.0475 14.8604ZM31.1288 18.7501C31.1288 17.8489 31.8598 17.1187 32.7608 17.1187V17.1181C33.6618 17.1181 34.3928 17.8491 34.3928 18.7501C34.3928 19.6512 33.6618 20.3822 32.7608 20.3822C31.8598 20.3822 31.1288 19.6512 31.1288 18.7501ZM25.5009 19.0257C21.644 19.0258 18.517 22.1529 18.517 26.0099C18.517 29.867 21.6441 32.9927 25.5012 32.9927C29.3583 32.9927 32.4843 29.867 32.4843 26.0099C32.4843 22.1528 29.358 19.0257 25.5009 19.0257ZM30.0346 26.0099C30.0346 23.5061 28.0048 21.4765 25.5012 21.4765C22.9974 21.4765 20.9678 23.5061 20.9678 26.0099C20.9678 28.5135 22.9974 30.5433 25.5012 30.5433C28.0048 30.5433 30.0346 28.5135 30.0346 26.0099Z" fill="#EA4235"/>
</g>
</svg>
