<svg width="51" height="51" viewBox="0 0 51 51" fill="none" xmlns="http://www.w3.org/2000/svg">
<path d="M25.5 51C39.5833 51 51 39.5833 51 25.5C51 11.4167 39.5833 0 25.5 0C11.4167 0 0 11.4167 0 25.5C0 39.5833 11.4167 51 25.5 51Z" fill="white"/>
<path fill-rule="evenodd" clip-rule="evenodd" d="M13.6001 18.2486C13.6001 18.2486 23.8633 24.0686 25.8554 24.0686C27.9433 24.0686 38.0954 18.3598 38.0954 18.3598L38.1117 17.3398C38.1117 16.2137 37.1978 15.2998 36.0687 15.2998H15.6421C14.514 15.2998 13.6001 16.2137 13.6001 17.3398V18.2486ZM38.0954 21.4199C38.0954 21.4199 28.0392 26.8737 25.8554 26.8737C23.8633 26.8737 13.6154 21.4199 13.6164 21.4199L13.6001 33.6599C13.6001 34.786 14.515 35.6999 15.6421 35.6999H36.0687C37.1978 35.6999 38.1117 34.786 38.1117 33.6599L38.0954 21.4199Z" fill="#FABB04"/>
</svg>
