<?xml version="1.0" standalone="no"?>
<!DOCTYPE svg PUBLIC "-//W3C//DTD SVG 20010904//EN"
 "http://www.w3.org/TR/2001/REC-SVG-20010904/DTD/svg10.dtd">
<svg version="1.0" xmlns="http://www.w3.org/2000/svg"
 width="100.000000pt" height="100.000000pt" viewBox="0 0 100.000000 100.000000"
 preserveAspectRatio="xMidYMid meet">
<metadata>
Created by potrace 1.16, written by Peter Selinger 2001-2019
</metadata>
<g transform="translate(0.000000,100.000000) scale(0.023256,-0.024096)"
fill="#000000" stroke="none">
<path d="M0 2075 l0 -2075 2150 0 2150 0 0 2075 0 2075 -2150 0 -2150 0 0
-2075z m2752 1636 c43 -19 138 -106 138 -127 0 -6 7 -26 16 -44 31 -62 27
-175 -8 -214 -4 -6 -8 -18 -8 -27 0 -9 -25 -39 -55 -67 -130 -119 -278 -107
-393 32 -41 49 -49 72 -59 160 -12 113 52 223 163 280 61 32 143 34 206 7z
m-1242 -47 c94 -33 154 -98 185 -201 21 -68 19 -105 -11 -181 -42 -110 -126
-172 -240 -180 -105 -7 -201 50 -251 148 -24 48 -28 66 -28 140 0 93 14 133
63 185 48 51 68 66 118 85 61 23 107 24 164 4z m1162 -766 c29 -18 77 -70 78
-85 0 -7 4 -13 8 -13 17 0 68 -180 77 -275 3 -27 10 -72 15 -100 6 -27 20
-122 31 -210 12 -88 25 -180 30 -205 14 -77 29 -163 39 -220 14 -82 30 -170
40 -210 4 -19 20 -87 35 -150 14 -63 30 -129 35 -146 6 -17 10 -39 10 -50 0
-11 4 -24 8 -30 5 -5 13 -27 20 -49 6 -22 22 -79 36 -126 14 -47 26 -95 26
-107 0 -11 4 -31 9 -44 41 -105 35 -182 -20 -236 -71 -70 -175 -64 -231 12
-35 49 -60 104 -77 171 -7 28 -16 66 -21 85 -5 19 -16 67 -24 105 -8 39 -22
104 -31 145 -21 95 -32 150 -44 222 -5 31 -12 61 -15 66 -6 10 -24 107 -36
202 -5 36 -13 88 -19 115 -16 84 -51 299 -51 314 0 23 -30 -8 -30 -33 -1 -23
-33 -122 -44 -133 -3 -3 -6 -17 -6 -29 0 -13 -4 -26 -10 -29 -5 -3 -10 -15
-10 -26 0 -10 -4 -27 -10 -37 -11 -20 -40 -108 -40 -123 0 -5 -9 -29 -20 -51
-11 -23 -20 -50 -20 -59 0 -10 -4 -21 -10 -24 -5 -3 -10 -19 -10 -34 0 -15 -4
-31 -8 -36 -5 -6 -14 -30 -21 -55 -7 -25 -18 -56 -23 -70 -13 -32 -31 -90 -52
-165 -10 -33 -21 -69 -26 -80 -7 -17 -42 -128 -45 -145 -3 -14 -30 -73 -68
-149 -61 -123 -132 -167 -226 -141 -86 23 -130 113 -211 430 -5 19 -16 62 -25
95 -9 33 -20 76 -25 95 -5 19 -20 78 -35 130 -14 52 -28 104 -30 115 -2 11
-13 63 -24 115 -12 52 -28 128 -37 168 -8 41 -19 85 -25 99 -5 13 -12 56 -16
96 -6 68 -7 70 -19 42 -6 -17 -17 -61 -24 -100 -15 -91 -39 -195 -51 -217 -5
-10 -9 -26 -9 -35 0 -26 -83 -365 -101 -411 -5 -13 -9 -36 -9 -51 0 -15 -5
-41 -10 -57 -6 -16 -15 -58 -20 -94 -5 -36 -14 -87 -19 -115 -5 -27 -14 -75
-19 -106 -25 -135 -62 -204 -121 -229 -75 -31 -171 8 -201 81 -26 61 5 390 50
534 5 17 16 57 24 90 8 33 26 101 40 150 13 50 28 101 31 115 4 14 10 34 15
45 5 11 11 34 13 50 3 17 17 73 32 125 15 52 31 115 36 140 14 78 60 323 69
365 86 441 152 565 304 565 32 0 50 -7 79 -31 37 -30 77 -97 77 -129 0 -9 4
-20 9 -26 11 -13 41 -136 41 -173 0 -16 5 -33 10 -36 6 -3 10 -19 10 -35 0
-16 4 -39 9 -52 5 -13 14 -61 21 -108 6 -47 18 -119 26 -160 16 -85 31 -163
38 -200 3 -14 21 -92 41 -175 19 -82 40 -170 44 -195 5 -25 19 -74 30 -110 39
-117 41 -126 41 -151 0 -20 4 -17 19 16 10 22 24 58 31 80 7 22 21 58 30 80
10 22 25 63 33 90 23 74 39 118 48 137 5 10 9 25 9 33 0 8 4 23 10 33 10 18
49 150 57 195 3 15 9 27 14 27 5 0 9 11 9 25 0 14 4 33 9 43 8 16 21 60 41
142 4 19 16 62 25 95 14 49 53 219 81 355 7 30 13 46 50 129 23 51 38 70 73
93 49 31 115 38 153 16z"/>
</g>
</svg>
