<svg width="605" height="512" viewBox="0 0 605 512" fill="none" xmlns="http://www.w3.org/2000/svg">
<path d="M42.4976 510.734L40.6113 510.484L70.0923 308.623L71.9786 308.873L42.4976 510.734Z" fill="#494949"/>
<path d="M152.273 510.734L150.387 510.484L179.867 308.623L181.753 308.873L152.273 510.734Z" fill="#494949"/>
<path d="M394.922 510.734L396.809 510.484L367.328 308.623L365.441 308.873L394.922 510.734Z" fill="#494949"/>
<path d="M285.148 510.734L287.034 510.484L257.554 308.623L255.668 308.873L285.148 510.734Z" fill="#494949"/>
<path d="M246.052 219.784L244.148 219.959L261.371 308.838L263.275 308.662L246.052 219.784Z" fill="#494949"/>
<path d="M48.3766 219.783L46.4727 219.958L63.6948 308.837L65.5988 308.661L48.3766 219.783Z" fill="#494949"/>
<path d="M263.108 302.24H69.7563C64.5395 302.24 60.3105 305.154 60.3105 308.748V308.749C60.3105 312.343 64.5395 315.257 69.7563 315.257H263.108C268.324 315.257 272.553 312.343 272.553 308.749V308.748C272.553 305.154 268.324 302.24 263.108 302.24Z" fill="#292A2E"/>
<path opacity="0.8" d="M263.108 302.24H69.7563C64.5395 302.24 60.3105 305.154 60.3105 308.748V308.749C60.3105 312.343 64.5395 315.257 69.7563 315.257H263.108C268.324 315.257 272.553 312.343 272.553 308.749V308.748C272.553 305.154 268.324 302.24 263.108 302.24Z" fill="white"/>
<path d="M263.108 315.919H69.7577C68.3911 315.919 67.038 315.733 65.7754 315.373C64.5129 315.012 63.3657 314.484 62.3995 313.818C61.4332 313.153 60.6666 312.362 60.1437 311.492C59.6207 310.622 59.3516 309.69 59.3516 308.748C59.3516 307.807 59.6207 306.874 60.1437 306.004C60.6666 305.134 61.4332 304.344 62.3995 303.678C63.3657 303.012 64.5129 302.484 65.7754 302.124C67.038 301.763 68.3911 301.578 69.7577 301.578H263.108C264.475 301.578 265.828 301.763 267.09 302.124C268.353 302.484 269.5 303.012 270.466 303.678C271.433 304.344 272.199 305.134 272.722 306.004C273.245 306.874 273.514 307.807 273.514 308.748C273.514 309.69 273.245 310.622 272.722 311.492C272.199 312.362 271.433 313.153 270.466 313.818C269.5 314.484 268.353 315.012 267.09 315.373C265.828 315.733 264.475 315.919 263.108 315.919V315.919ZM69.7577 302.902C68.6434 302.902 67.54 303.053 66.5105 303.347C65.481 303.64 64.5456 304.071 63.7577 304.614C62.9698 305.157 62.3447 305.801 61.9183 306.511C61.4919 307.22 61.2724 307.98 61.2724 308.748C61.2724 309.516 61.4919 310.276 61.9183 310.986C62.3447 311.695 62.9698 312.34 63.7577 312.883C64.5456 313.425 65.481 313.856 66.5105 314.15C67.54 314.444 68.6434 314.595 69.7577 314.595H263.108C264.222 314.595 265.326 314.444 266.355 314.15C267.385 313.856 268.32 313.425 269.108 312.883C269.896 312.34 270.521 311.695 270.948 310.986C271.374 310.276 271.593 309.516 271.593 308.748C271.593 307.98 271.374 307.22 270.948 306.511C270.521 305.801 269.896 305.157 269.108 304.614C268.32 304.071 267.385 303.64 266.355 303.347C265.326 303.053 264.222 302.902 263.108 302.902H69.7577Z" fill="#292A2E"/>
<path d="M369.229 302.24H175.877C170.661 302.24 166.432 305.154 166.432 308.748V308.749C166.432 312.343 170.661 315.257 175.877 315.257H369.229C374.445 315.257 378.674 312.343 378.674 308.749V308.748C378.674 305.154 374.445 302.24 369.229 302.24Z" fill="white"/>
<path d="M369.228 315.919H175.877C174.51 315.919 173.157 315.733 171.895 315.373C170.632 315.012 169.485 314.484 168.519 313.818C167.552 313.153 166.786 312.362 166.263 311.492C165.74 310.622 165.471 309.69 165.471 308.748C165.471 307.807 165.74 306.874 166.263 306.004C166.786 305.134 167.552 304.344 168.519 303.678C169.485 303.012 170.632 302.484 171.895 302.124C173.157 301.763 174.51 301.578 175.877 301.578H369.228C370.595 301.578 371.948 301.763 373.21 302.124C374.473 302.484 375.62 303.012 376.586 303.678C377.553 304.344 378.319 305.134 378.842 306.004C379.365 306.874 379.634 307.807 379.634 308.748C379.634 309.69 379.365 310.622 378.842 311.492C378.319 312.362 377.553 313.153 376.586 313.818C375.62 314.484 374.473 315.012 373.21 315.373C371.948 315.733 370.595 315.919 369.228 315.919V315.919ZM175.877 302.902C174.763 302.902 173.659 303.053 172.63 303.347C171.6 303.64 170.665 304.071 169.877 304.614C169.089 305.157 168.464 305.801 168.037 306.511C167.611 307.22 167.392 307.98 167.392 308.748C167.392 309.516 167.611 310.276 168.037 310.986C168.464 311.695 169.089 312.34 169.877 312.883C170.665 313.425 171.6 313.856 172.63 314.15C173.659 314.444 174.763 314.595 175.877 314.595H369.228C370.343 314.595 371.446 314.444 372.475 314.15C373.505 313.856 374.44 313.425 375.228 312.883C376.016 312.34 376.641 311.695 377.068 310.986C377.494 310.276 377.714 309.516 377.714 308.748C377.714 307.98 377.494 307.22 377.068 306.511C376.641 305.801 376.016 305.157 375.228 304.614C374.44 304.071 373.505 303.64 372.475 303.347C371.446 303.053 370.343 302.902 369.228 302.902H175.877Z" fill="#292A2E"/>
<path d="M235.461 219.87H47.9426C44.8766 219.87 41.9155 219.101 39.6119 217.707C37.3083 216.313 35.8195 214.389 35.4235 212.294L23.0197 146.66C22.7879 145.433 22.9386 144.186 23.4618 143.003C23.985 141.819 24.8686 140.726 26.0536 139.796C27.2387 138.867 28.6979 138.122 30.3339 137.612C31.9699 137.102 33.745 136.838 35.5407 136.838H223.058C226.123 136.838 229.084 137.607 231.388 139.001C233.692 140.395 235.181 142.319 235.577 144.414L247.979 210.048C248.211 211.275 248.061 212.522 247.538 213.705C247.015 214.889 246.132 215.982 244.947 216.911C243.762 217.841 242.303 218.586 240.667 219.096C239.032 219.606 237.257 219.87 235.461 219.87V219.87Z" fill="#292A2E"/>
<path opacity="0.8" d="M235.461 219.87H47.9426C44.8766 219.87 41.9155 219.101 39.6119 217.707C37.3083 216.313 35.8195 214.389 35.4235 212.294L23.0197 146.66C22.7879 145.433 22.9386 144.186 23.4618 143.003C23.985 141.819 24.8686 140.726 26.0536 139.796C27.2387 138.867 28.6979 138.122 30.3339 137.612C31.9699 137.102 33.745 136.838 35.5407 136.838H223.058C226.123 136.838 229.084 137.607 231.388 139.001C233.692 140.395 235.181 142.319 235.577 144.414L247.979 210.048C248.211 211.275 248.061 212.522 247.538 213.705C247.015 214.889 246.132 215.982 244.947 216.911C243.762 217.841 242.303 218.586 240.667 219.096C239.032 219.606 237.257 219.87 235.461 219.87V219.87Z" fill="white"/>
<path d="M235.46 220.532H47.9417C44.6445 220.527 41.4619 219.697 38.9845 218.198C36.5071 216.699 34.903 214.632 34.4699 212.379L22.0671 146.746C21.8173 145.425 21.9793 144.084 22.5421 142.81C23.1049 141.536 24.0556 140.36 25.3308 139.359C26.606 138.359 28.1762 137.557 29.9367 137.008C31.6972 136.459 33.6074 136.176 35.5398 136.176H223.057C226.354 136.181 229.536 137.01 232.014 138.509C234.491 140.008 236.095 142.076 236.528 144.328L248.931 209.963C249.181 211.283 249.019 212.624 248.456 213.898C247.893 215.172 246.943 216.348 245.668 217.348C244.393 218.348 242.823 219.15 241.063 219.699C239.302 220.248 237.393 220.532 235.46 220.532V220.532ZM35.5398 137.499C33.8809 137.499 32.2411 137.743 30.7298 138.215C29.2185 138.686 27.8705 139.374 26.7759 140.233C25.6812 141.092 24.865 142.102 24.3817 143.195C23.8985 144.289 23.7593 145.441 23.9735 146.574L36.3773 212.209C36.7489 214.142 38.126 215.918 40.253 217.205C42.3801 218.492 45.1127 219.204 47.9436 219.208H235.46C237.119 219.208 238.759 218.964 240.27 218.492C241.781 218.021 243.128 217.333 244.222 216.474C245.317 215.615 246.133 214.605 246.616 213.512C247.099 212.418 247.238 211.267 247.024 210.133L234.623 144.5C234.251 142.566 232.874 140.791 230.747 139.504C228.62 138.216 225.888 137.505 223.057 137.5L35.5398 137.499Z" fill="#292A2E"/>
<path d="M246.064 219.87H58.5451C55.4792 219.87 52.5183 219.101 50.2148 217.707C47.9113 216.313 46.4228 214.389 46.027 212.294L33.6193 146.66C33.3875 145.433 33.5382 144.187 34.0613 143.003C34.5843 141.82 35.4678 140.727 36.6526 139.797C37.8375 138.867 39.2965 138.123 40.9322 137.612C42.568 137.102 44.3428 136.838 46.1384 136.838H233.661C236.727 136.838 239.688 137.607 241.991 139.001C244.295 140.395 245.783 142.319 246.179 144.414L258.583 210.048C258.815 211.275 258.664 212.522 258.141 213.705C257.618 214.889 256.734 215.982 255.55 216.911C254.365 217.841 252.906 218.586 251.27 219.096C249.634 219.606 247.859 219.87 246.064 219.87V219.87Z" fill="white"/>
<path d="M246.064 220.532H58.5449C55.2479 220.527 52.0654 219.697 49.5882 218.198C47.1109 216.699 45.507 214.632 45.0741 212.379L32.6703 146.746C32.4209 145.425 32.583 144.084 33.1459 142.81C33.7088 141.537 34.6595 140.36 35.9345 139.36C37.2095 138.36 38.7795 137.558 40.5397 137.009C42.3 136.46 44.2099 136.176 46.1421 136.176H233.66C236.957 136.181 240.14 137.01 242.617 138.509C245.095 140.008 246.699 142.076 247.132 144.328L259.536 209.963C259.785 211.283 259.623 212.624 259.06 213.898C258.497 215.171 257.546 216.348 256.271 217.348C254.996 218.348 253.426 219.15 251.666 219.699C249.906 220.248 247.996 220.532 246.064 220.532V220.532ZM46.1421 137.499C44.4835 137.5 42.844 137.744 41.3332 138.216C39.8224 138.687 38.4749 139.376 37.3807 140.235C36.2865 141.093 35.4706 142.103 34.9876 143.197C34.5046 144.29 34.3655 145.442 34.5796 146.575L46.9786 212.209C47.3506 214.142 48.7278 215.917 50.8548 217.205C52.9817 218.492 55.7141 219.204 58.5449 219.208H246.064C247.723 219.208 249.362 218.964 250.874 218.493C252.385 218.021 253.733 217.333 254.828 216.474C255.922 215.616 256.739 214.606 257.222 213.512C257.705 212.419 257.844 211.267 257.63 210.133L245.226 144.5C244.855 142.566 243.478 140.791 241.351 139.503C239.223 138.216 236.491 137.504 233.66 137.5L46.1421 137.499Z" fill="#292A2E"/>
<path d="M391.829 234.856L389.918 234.989L430.407 511.178L432.318 511.045L391.829 234.856Z" fill="#494949"/>
<path d="M225.854 36.0772C225.854 36.0772 238.314 29.5965 241.402 14.6789C243.792 3.12905 228.33 10.6117 228.33 10.6117C228.33 10.6117 229.934 2.28331 221.127 3.10986C212.32 3.93641 207.393 12.685 207.393 12.685" fill="#0C0C0C"/>
<path d="M175.614 4.08464C175.614 4.08464 131.92 7.31474 147.716 48.1089L151.582 48.2876L159.431 48.6502" fill="#0C0C0C"/>
<path d="M218.534 90.715C218.342 90.6978 216.21 115.068 175.118 112.946C146.67 111.477 136.527 90.6805 135.875 90.6805C138.943 90.2319 142.732 89.5496 144.239 89.316C147.522 88.7908 150.495 87.5894 152.763 85.8715C155.031 84.1536 156.486 82.0007 156.934 79.6991C157.767 76.2447 156.358 58.5701 156.789 55.0747L200.456 61.7903C199.847 69.173 195.576 86.287 210.541 89.316C213.035 89.8169 215.717 90.2775 218.534 90.715Z" fill="#E98862"/>
<path opacity="0.52" d="M201.071 82.3217C200.387 80.8027 199.947 79.2367 199.757 77.6516C199.278 74.0347 199.375 70.3925 200.045 66.79C191.17 65.9648 182.808 63.4407 175.911 59.5046C175.1 61.568 170.641 70.5839 171.877 72.5447C174.206 76.252 185.171 82.3217 201.071 82.3217Z" fill="#0C0C0C"/>
<path d="M192.057 77.4981C174.829 76.4333 154.21 68.9335 153.913 52.82L153.644 38.2809C153.347 22.1682 165.388 8.99828 187.407 8.80505C209.424 8.61247 226.123 21.5302 226.42 37.6437L226.539 44.08C226.523 46.2906 226.29 48.4978 225.839 50.6865C224.709 56.477 222.957 65.2805 217.255 71.2358C211.869 76.8581 203.062 78.1777 192.057 77.4981Z" fill="#E98862"/>
<path d="M200.051 62.7711C203.606 62.8821 207.149 62.4158 210.394 61.4098C210.461 61.3901 210.522 61.3614 210.573 61.3255C210.624 61.2896 210.665 61.2471 210.692 61.2005C210.719 61.1538 210.733 61.1039 210.732 61.0537C210.731 61.0034 210.716 60.9537 210.687 60.9075C210.659 60.8613 210.617 60.8194 210.565 60.7842C210.513 60.7491 210.451 60.7213 210.384 60.7026C210.316 60.6838 210.243 60.6744 210.17 60.675C210.098 60.6755 210.025 60.6859 209.958 60.7057C202.967 62.7605 196.617 62.4594 191.598 59.8354C191.497 59.7801 191.391 59.7286 191.282 59.6813C191.156 59.641 191.012 59.6347 190.88 59.6637C190.747 59.6927 190.636 59.7549 190.566 59.8379C190.497 59.921 190.475 60.0189 190.506 60.1124C190.536 60.2059 190.616 60.2882 190.73 60.343C190.77 60.3602 190.835 60.3953 190.922 60.4436C193.561 61.8282 196.739 62.6386 200.051 62.7711V62.7711Z" fill="#0C0C0C"/>
<path d="M199.884 66.3995C200.527 66.4268 201.171 66.4162 201.811 66.3678C201.957 66.3571 202.092 66.3067 202.184 66.2278C202.277 66.1488 202.32 66.0478 202.305 65.9469C202.289 65.846 202.216 65.7534 202.101 65.6896C201.987 65.6259 201.84 65.596 201.694 65.6067C197.845 65.8886 196.009 64.6736 195.931 64.6214C195.827 64.5495 195.686 64.509 195.539 64.5089C195.391 64.5088 195.25 64.549 195.146 64.6207C195.041 64.6924 194.983 64.7897 194.982 64.8912C194.982 64.9927 195.041 65.0902 195.145 65.162C196.47 65.9394 198.144 66.3767 199.884 66.3995V66.3995Z" fill="#0C0C0C"/>
<path d="M219.152 47.1784C220.65 47.1784 221.864 46.3417 221.864 45.3096C221.864 44.2775 220.65 43.4408 219.152 43.4408C217.654 43.4408 216.439 44.2775 216.439 45.3096C216.439 46.3417 217.654 47.1784 219.152 47.1784Z" fill="#0C0C0C"/>
<path d="M192.652 46.0329C194.15 46.0329 195.364 45.1962 195.364 44.1641C195.364 43.1319 194.15 42.2952 192.652 42.2952C191.154 42.2952 189.939 43.1319 189.939 44.1641C189.939 45.1962 191.154 46.0329 192.652 46.0329Z" fill="#0C0C0C"/>
<path d="M155.373 57.7171C148.681 57.776 143.167 52.8908 143.079 48.2803C142.992 43.6697 148.371 41.0796 155.062 41.0213L158.567 44.08L161.124 57.6668L155.373 57.7171Z" fill="#E98862"/>
<path d="M162.026 50.3086C162.026 50.3086 164.286 27.5086 174.319 26.1004C181.002 25.1627 197.207 31.6943 212.216 29.7216C218.784 28.8613 225.018 29.9784 225.652 32.1159C225.902 32.9623 229.994 20.7996 219.71 11.5719C211.523 4.22295 184.729 2.1483 172.54 4.55714C138.788 11.2291 153.682 42.0246 153.682 42.0246L155.187 49.8851L162.026 50.3086Z" fill="#0C0C0C"/>
<path d="M204.093 57.3889H204.136C206.292 57.3737 209.906 57.1831 209.892 56.0713C209.877 55.1501 206.074 45.2348 205.639 44.1072C205.598 44.0135 205.505 43.9346 205.381 43.8871C205.257 43.8395 205.11 43.8269 204.973 43.852C204.836 43.8771 204.718 43.9379 204.644 44.0217C204.57 44.1054 204.547 44.2055 204.578 44.3011C206.267 48.6926 208.784 55.4532 208.794 56.0806C208.586 56.3453 206.358 56.6179 204.126 56.6338C203.985 56.6359 203.85 56.6751 203.75 56.7435C203.65 56.8118 203.592 56.904 203.588 57.001C203.584 57.098 203.634 57.1924 203.728 57.2647C203.822 57.337 203.952 57.3817 204.093 57.3896V57.3889Z" fill="#0C0C0C"/>
<path d="M211.451 35.1753C213.717 34.7455 216.11 34.7455 218.376 35.1753C219.489 35.3814 220.551 35.7017 221.526 36.1256C222.49 36.5404 223.374 37.0376 224.156 37.6053C224.307 37.7054 224.394 37.8421 224.399 37.9859C224.405 38.1298 224.328 38.2695 224.186 38.3751C224.044 38.4806 223.848 38.5436 223.639 38.5507C223.431 38.5577 223.226 38.5081 223.07 38.4126L223.021 38.3835C222.296 37.9211 221.489 37.5234 220.62 37.1996C219.767 36.8778 218.849 36.6466 217.895 36.514C216.019 36.2429 214.072 36.318 212.251 36.7317L212.174 36.7503C211.874 36.8235 211.544 36.8114 211.256 36.7168C210.968 36.6221 210.747 36.4527 210.641 36.2457C210.535 36.0386 210.552 35.811 210.69 35.6129C210.827 35.4148 211.073 35.2623 211.373 35.1892L211.451 35.1753Z" fill="#0C0C0C"/>
<path d="M195.408 36.1143C193.683 35.5369 191.768 35.2837 189.856 35.3804C188.886 35.4239 187.931 35.5685 187.023 35.8092C186.1 36.0506 185.225 36.3708 184.418 36.7622L184.367 36.786C184.193 36.8625 183.984 36.8901 183.782 36.863C183.58 36.8359 183.401 36.7563 183.282 36.6406C183.163 36.5249 183.113 36.382 183.143 36.2418C183.173 36.1015 183.28 35.9745 183.443 35.8873C184.328 35.3965 185.301 34.9847 186.336 34.6617C187.385 34.3318 188.499 34.1118 189.642 34.0092C191.971 33.7904 194.343 34.0094 196.506 34.6432C196.799 34.7309 197.029 34.8953 197.147 35.1001C197.264 35.3048 197.258 35.5333 197.131 35.7351C197.003 35.9369 196.765 36.0957 196.467 36.1763C196.17 36.257 195.839 36.253 195.546 36.1653L195.48 36.1434L195.408 36.1143Z" fill="#0C0C0C"/>
<path d="M208.225 19.4808C213.178 18.7677 215.959 14.1178 214.435 9.09487C212.912 4.07191 207.663 0.578005 202.71 1.29101C197.757 2.00402 194.977 6.65394 196.5 11.6769C198.023 16.6999 203.273 20.1938 208.225 19.4808Z" fill="#0C0C0C"/>
<path d="M484.463 476.271C484.463 476.271 489.612 494.663 514.604 495.688C539.596 496.713 534.178 510.433 534.178 510.433H438.67V477.553L484.463 476.271Z" fill="#367CFF"/>
<path d="M302.764 464.658C302.764 464.658 295.602 482.728 317.372 491.249C339.141 499.77 325.489 510.433 325.489 510.433L239.789 481.381L260.852 451.878L302.764 464.658Z" fill="#367CFF"/>
<path d="M249.684 459.554L321.954 302.456H190.953C164.638 302.456 153.668 287.08 153.668 268.949C153.668 250.818 179.538 234.923 205.851 234.923H382.655C398.704 234.923 416.701 241.686 425.51 250.931C434.319 260.176 431.937 274.502 425.555 284.649L309.824 478.327" fill="#262626"/>
<path opacity="0.8" d="M249.684 459.554L321.954 302.456H190.953C164.638 302.456 153.668 287.08 153.668 268.949C153.668 250.818 179.538 234.923 205.851 234.923H382.655C398.704 234.923 416.701 241.686 425.51 250.931C434.319 260.176 431.937 274.502 425.555 284.649L309.824 478.327" fill="#0A0A0A"/>
<path d="M433.177 493.352L312.335 302.456L153.665 302.449C116.486 300.44 99.4591 286.401 100.001 268.274C100.535 250.376 113.687 232.698 139.544 232.698H353.402C372.534 232.969 387.586 247.537 394.683 259.781L495.143 481.665" fill="#262626"/>
<path d="M89.1793 232.917C89.1793 232.917 82.1327 264.58 93.3024 282.184C107.247 304.162 159.52 302.449 159.52 302.449L156.575 232.698L89.1793 232.917Z" fill="#262626"/>
<path d="M399.23 232.295L287.15 216.292C282.479 215.625 278.129 214.157 274.5 212.024C270.871 209.892 268.081 207.163 266.389 204.09L222.306 124.047C220.964 121.645 220.323 119.083 220.422 116.51C220.52 113.937 221.356 111.402 222.88 109.052C224.404 106.702 226.588 104.583 229.304 102.816C232.021 101.049 235.217 99.6689 238.71 98.7555C242.203 97.8422 245.923 97.4134 249.657 97.4937C253.391 97.5739 257.065 98.1618 260.468 99.2234C263.872 100.285 266.937 101.799 269.488 103.68C272.04 105.56 274.027 107.769 275.336 110.18L313.898 180.195L410.742 194.023C410.742 194.023 401.174 232.572 399.23 232.295Z" fill="#367CFF"/>
<path d="M269.594 144.373C268.301 154.851 259.126 220.219 257.877 233.125H89.2508C88.2818 221.485 85.1364 172.066 81.4618 149.304C77.9553 127.583 76.6828 115.189 80.7223 108.439C87.8467 96.5339 105.675 92.2503 121.032 90.8175C130.409 89.9433 144.512 89.316 144.512 89.316C144.512 89.316 145.707 105.961 174.182 106.888C212.943 108.145 210.355 89.316 210.547 89.316C216.826 89.316 251.007 92.4627 259.554 96.3009C271.627 101.723 275.194 109.111 275.335 115.899C275.497 123.715 271.062 132.491 269.594 144.373Z" fill="#367CFF"/>
<path d="M262.967 197.786H262.927C262.864 197.782 262.803 197.77 262.747 197.75C262.691 197.731 262.641 197.703 262.6 197.67C262.559 197.637 262.528 197.598 262.509 197.557C262.49 197.516 262.483 197.472 262.488 197.429L266.866 161.194C266.869 161.15 266.886 161.108 266.914 161.069C266.942 161.029 266.982 160.995 267.03 160.966C267.079 160.938 267.135 160.917 267.196 160.904C267.256 160.891 267.32 160.887 267.383 160.892C267.446 160.895 267.507 160.907 267.563 160.927C267.62 160.947 267.669 160.974 267.71 161.008C267.751 161.041 267.782 161.079 267.801 161.121C267.82 161.162 267.827 161.206 267.822 161.249L263.445 197.484C263.434 197.566 263.38 197.643 263.291 197.699C263.203 197.755 263.087 197.786 262.967 197.786Z" fill="#0C0C0C"/>
<path d="M343.277 219.533L380.276 141.164C380.926 139.786 382.192 138.586 383.893 137.735C385.593 136.884 387.641 136.426 389.743 136.426H550.087C551.658 136.426 553.207 136.682 554.607 137.174C556.007 137.665 557.218 138.378 558.142 139.255C559.065 140.131 559.674 141.145 559.92 142.214C560.165 143.284 560.04 144.378 559.553 145.408L512.95 223.78C512.3 225.157 511.034 226.357 509.333 227.208C507.633 228.059 505.585 228.517 503.483 228.517H352.744C351.172 228.517 349.622 228.261 348.222 227.769C346.821 227.278 345.61 226.564 344.686 225.688C343.763 224.812 343.154 223.797 342.909 222.727C342.664 221.657 342.79 220.563 343.277 219.533Z" fill="#292A2E"/>
<path d="M343.277 219.533L380.276 141.164C380.926 139.786 382.192 138.586 383.893 137.735C385.593 136.884 387.641 136.426 389.743 136.426H550.087C551.658 136.426 553.207 136.682 554.607 137.174C556.007 137.665 557.218 138.378 558.142 139.255C559.065 140.131 559.674 141.145 559.92 142.214C560.165 143.284 560.04 144.378 559.553 145.408L512.95 223.78C512.3 225.157 511.034 226.357 509.333 227.208C507.633 228.059 505.585 228.517 503.483 228.517H352.744C351.172 228.517 349.622 228.261 348.222 227.769C346.821 227.278 345.61 226.564 344.686 225.688C343.763 224.812 343.154 223.797 342.909 222.727C342.664 221.657 342.79 220.563 343.277 219.533Z" fill="#292A2E"/>
<path d="M373.458 222.16H272.552C270.038 222.16 268 223.564 268 225.296V225.377C268 227.11 270.038 228.514 272.552 228.514H373.458C375.972 228.514 378.01 227.11 378.01 225.377V225.296C378.01 223.564 375.972 222.16 373.458 222.16Z" fill="#292A2E"/>
<path d="M373.458 222.16H272.552C270.038 222.16 268 223.564 268 225.296V225.377C268 227.11 270.038 228.514 272.552 228.514H373.458C375.972 228.514 378.01 227.11 378.01 225.377V225.296C378.01 223.564 375.972 222.16 373.458 222.16Z" fill="#292A2E"/>
<path d="M446.61 197.187C455.342 197.187 462.42 192.31 462.42 186.294C462.42 180.277 455.342 175.4 446.61 175.4C437.879 175.4 430.801 180.277 430.801 186.294C430.801 192.31 437.879 197.187 446.61 197.187Z" fill="white"/>
<path d="M334.841 201.175L309.658 195.093L313.273 194.921C314.439 194.849 315.521 194.475 316.302 193.875C317.083 193.274 317.504 192.492 317.48 191.686C317.446 191.27 317.29 190.864 317.021 190.491C316.752 190.118 316.376 189.787 315.915 189.518C315.454 189.249 314.918 189.047 314.341 188.925C313.763 188.803 313.155 188.764 312.555 188.809L268 192.072L269.153 201.937C269.512 205.001 271.191 207.922 273.976 210.324C276.76 212.726 280.521 214.501 284.779 215.42L304.073 219.562C305.07 219.79 306.15 219.775 307.132 219.517C308.114 219.26 308.936 218.777 309.46 218.15C309.916 217.577 310.094 216.918 309.968 216.271C309.842 215.623 309.419 215.02 308.761 214.549C308.804 214.528 308.84 214.502 308.867 214.471C308.894 214.44 308.912 214.406 308.919 214.37C308.927 214.335 308.923 214.298 308.909 214.263C308.896 214.229 308.872 214.196 308.839 214.168L312.392 214.936C313.502 215.193 314.711 215.15 315.776 214.816C316.84 214.482 317.681 213.881 318.128 213.136C318.494 212.461 318.501 211.718 318.15 211.039C317.799 210.359 317.111 209.787 316.207 209.423C316.249 209.408 316.286 209.387 316.317 209.362L317.778 209.678C318.775 209.907 319.856 209.891 320.837 209.634C321.819 209.376 322.642 208.893 323.165 208.266C323.718 207.571 323.858 206.755 323.558 205.99C323.257 205.226 322.538 204.571 321.552 204.163C321.56 204.143 321.565 204.122 321.565 204.101L332.053 206.633C332.575 206.763 333.128 206.821 333.682 206.802C334.236 206.784 334.779 206.69 335.28 206.526C335.781 206.362 336.23 206.132 336.6 205.848C336.971 205.564 337.256 205.232 337.44 204.871C337.623 204.51 337.701 204.128 337.669 203.747C337.636 203.366 337.495 202.992 337.252 202.649C337.009 202.305 336.67 201.999 336.254 201.746C335.838 201.493 335.353 201.3 334.828 201.178L334.841 201.175Z" fill="#E98862"/>
<path opacity="0.2" d="M321.167 204.381C321.118 204.38 321.07 204.374 321.024 204.363L310.88 201.821C310.776 201.795 310.691 201.741 310.644 201.672C310.598 201.603 310.593 201.523 310.631 201.452C310.669 201.38 310.747 201.321 310.848 201.289C310.949 201.257 311.064 201.254 311.168 201.28L321.313 203.822C321.405 203.845 321.483 203.89 321.532 203.949C321.581 204.007 321.599 204.076 321.582 204.143C321.565 204.209 321.514 204.27 321.439 204.313C321.363 204.357 321.268 204.381 321.17 204.381H321.167Z" fill="#0A0A0A"/>
<path opacity="0.2" d="M316.04 209.462C315.993 209.462 315.945 209.457 315.9 209.446L307.905 207.491C307.852 207.479 307.803 207.46 307.761 207.435C307.719 207.409 307.685 207.379 307.66 207.344C307.635 207.31 307.621 207.272 307.618 207.234C307.615 207.196 307.623 207.157 307.641 207.121C307.66 207.085 307.689 207.052 307.726 207.024C307.763 206.995 307.809 206.972 307.859 206.956C307.91 206.94 307.965 206.931 308.02 206.93C308.076 206.928 308.131 206.935 308.183 206.948L316.18 208.903C316.273 208.926 316.351 208.97 316.401 209.029C316.45 209.087 316.469 209.156 316.452 209.223C316.435 209.29 316.385 209.351 316.31 209.394C316.234 209.438 316.139 209.462 316.04 209.462V209.462Z" fill="#0A0A0A"/>
<path opacity="0.2" d="M308.509 214.619C308.458 214.619 308.408 214.613 308.36 214.6L304.614 213.616C304.511 213.589 304.427 213.534 304.382 213.465C304.337 213.395 304.334 213.316 304.373 213.244C304.413 213.173 304.492 213.115 304.593 213.084C304.694 213.053 304.81 213.051 304.913 213.078L308.659 214.062C308.75 214.086 308.827 214.131 308.875 214.19C308.923 214.249 308.94 214.317 308.922 214.384C308.904 214.45 308.853 214.51 308.778 214.553C308.703 214.596 308.608 214.62 308.51 214.619H308.509Z" fill="#0A0A0A"/>
<path d="M287.722 186.233L182.076 186.184L142.109 119.006L82.4883 136.278L132.351 216.008L132.838 216.802C135.278 220.677 139.387 223.942 144.61 226.155C149.832 228.367 155.915 229.42 162.035 229.171L289.317 223.99L287.722 186.233Z" fill="#367CFF"/>
<path d="M160.285 229.537C154.363 229.53 148.571 228.334 143.619 226.096C138.667 223.857 134.768 220.673 132.4 216.933L131.912 216.139L89.4199 148.206L90.3016 147.941L133.28 216.673C135.692 220.48 139.738 223.687 144.873 225.862C150.009 228.037 155.988 229.077 162.006 228.841L288.823 223.679L287.252 186.565L181.752 186.516L151.018 134.863L151.908 134.613L182.394 185.854L288.184 185.904L289.81 224.302L289.344 224.321L162.066 229.501C161.471 229.525 160.875 229.537 160.285 229.537Z" fill="#0C0C0C"/>
<path d="M42.7744 234.86L2.25781 511.047L4.16891 511.18L44.6855 234.993L42.7744 234.86Z" fill="#494949"/>
<path d="M210.173 234.859L169.656 511.047L171.567 511.18L212.084 234.993L210.173 234.859Z" fill="#494949"/>
<path d="M559.224 234.856L557.312 234.989L597.801 511.178L599.712 511.045L559.224 234.856Z" fill="#494949"/>
<path d="M595.735 229.501H8.91654C4.57025 229.501 1.04688 231.928 1.04688 234.923C1.04688 237.917 4.57025 240.345 8.91654 240.345H595.735C600.081 240.345 603.605 237.917 603.605 234.923C603.605 231.928 600.081 229.501 595.735 229.501Z" fill="#292A2E"/>
<path opacity="0.8" d="M595.735 229.501H8.91654C4.57025 229.501 1.04688 231.928 1.04688 234.923C1.04688 237.917 4.57025 240.345 8.91654 240.345H595.735C600.081 240.345 603.605 237.917 603.605 234.923C603.605 231.928 600.081 229.501 595.735 229.501Z" fill="white"/>
<path d="M595.738 241.007H8.92218C7.75491 241.015 6.59681 240.864 5.51487 240.562C4.43294 240.26 3.44864 239.813 2.61892 239.248C1.7892 238.682 1.13052 238.008 0.680989 237.266C0.23146 236.524 0 235.727 0 234.923C0 234.119 0.23146 233.322 0.680989 232.58C1.13052 231.838 1.7892 231.164 2.61892 230.598C3.44864 230.032 4.43294 229.586 5.51487 229.284C6.59681 228.982 7.75491 228.831 8.92218 228.839H595.738C596.905 228.831 598.063 228.982 599.145 229.284C600.227 229.586 601.211 230.032 602.041 230.598C602.871 231.164 603.529 231.838 603.979 232.58C604.429 233.322 604.66 234.119 604.66 234.923C604.66 235.727 604.429 236.524 603.979 237.266C603.529 238.008 602.871 238.682 602.041 239.248C601.211 239.813 600.227 240.26 599.145 240.562C598.063 240.864 596.905 241.015 595.738 241.007ZM8.92218 230.162C8.00805 230.155 7.10087 230.273 6.25321 230.509C5.40555 230.744 4.63425 231.094 3.98402 231.537C3.3338 231.979 2.81756 232.507 2.46522 233.088C2.11289 233.669 1.93147 234.293 1.93147 234.923C1.93147 235.553 2.11289 236.176 2.46522 236.758C2.81756 237.339 3.3338 237.866 3.98402 238.309C4.63425 238.752 5.40555 239.101 6.25321 239.337C7.10087 239.573 8.00805 239.691 8.92218 239.683H595.738C596.652 239.691 597.559 239.573 598.407 239.337C599.254 239.101 600.026 238.752 600.676 238.309C601.326 237.866 601.842 237.339 602.195 236.758C602.547 236.176 602.729 235.553 602.729 234.923C602.729 234.293 602.547 233.669 602.195 233.088C601.842 232.507 601.326 231.979 600.676 231.537C600.026 231.094 599.254 230.744 598.407 230.509C597.559 230.273 596.652 230.155 595.738 230.162H8.92218Z" fill="#292A2E"/>
<path d="M595.736 229.501H182.715C178.369 229.501 174.846 231.928 174.846 234.923C174.846 237.917 178.369 240.345 182.715 240.345H595.736C600.082 240.345 603.605 237.917 603.605 234.923C603.605 231.928 600.082 229.501 595.736 229.501Z" fill="white"/>
<path d="M595.738 241.007H182.717C180.391 240.99 178.168 240.342 176.532 239.203C174.896 238.063 173.979 236.526 173.979 234.923C173.979 233.32 174.896 231.782 176.532 230.643C178.168 229.504 180.391 228.856 182.717 228.839H595.738C596.905 228.83 598.063 228.982 599.145 229.284C600.227 229.586 601.211 230.032 602.041 230.598C602.871 231.164 603.529 231.838 603.979 232.58C604.428 233.322 604.66 234.119 604.66 234.923C604.66 235.727 604.428 236.524 603.979 237.266C603.529 238.008 602.871 238.682 602.041 239.247C601.211 239.813 600.227 240.26 599.145 240.562C598.063 240.864 596.905 241.015 595.738 241.007ZM182.717 230.162C180.898 230.177 179.162 230.685 177.884 231.576C176.606 232.468 175.889 233.67 175.889 234.923C175.889 236.176 176.606 237.378 177.884 238.269C179.162 239.16 180.898 239.669 182.717 239.683H595.738C596.652 239.691 597.559 239.573 598.407 239.337C599.254 239.101 600.026 238.752 600.676 238.309C601.326 237.866 601.842 237.339 602.195 236.758C602.547 236.176 602.728 235.553 602.728 234.923C602.728 234.293 602.547 233.669 602.195 233.088C601.842 232.507 601.326 231.979 600.676 231.537C600.026 231.094 599.254 230.744 598.407 230.509C597.559 230.273 596.652 230.155 595.738 230.162H182.717Z" fill="#292A2E"/>
</svg>
