<svg width="605" height="512" viewBox="0 0 605 512" fill="none" xmlns="http://www.w3.org/2000/svg">
<path d="M119.43 67.0537C119.43 67.0537 116.666 102.025 109.083 114.588C87.2511 150.756 80.4196 191.78 101.318 213.675C122.217 235.571 257.777 238.434 268.867 189.193C278.205 147.736 259.723 142.91 255.779 108.49C253.994 92.9167 248.915 60.2349 248.915 60.2349" fill="#0A0A0A"/>
<path d="M235.099 180.76C234.864 180.727 232.266 226.772 182.202 222.758C147.543 219.984 135.185 180.691 134.387 180.691C138.123 179.842 144.417 178.608 146.076 177.663C151.534 174.529 158.284 171.269 160.045 159.945C161.063 153.423 159.339 120.028 159.869 113.421L213.071 126.108C212.327 140.055 207.125 172.388 225.361 178.109C228.398 179.063 231.667 179.932 235.099 180.76Z" fill="#E98862"/>
<path opacity="0.5" d="M213.822 164.902C212.988 162.033 212.452 159.075 212.221 156.08C211.636 149.247 211.753 142.366 212.569 135.56C201.757 134 191.571 129.232 183.168 121.796C182.18 125.694 176.747 142.728 178.252 146.432C181.092 153.43 194.451 164.902 213.822 164.902Z" fill="#0C0C0C"/>
<path d="M206.247 150.552C185.239 152.322 158.253 142.845 153.127 112.898L148.501 85.8773C143.376 55.9304 153.941 28.7771 180.331 23.6203C206.721 18.4636 230.602 38.8851 235.728 68.832L237.775 80.7956C239.743 92.2863 243.73 147.392 206.247 150.552Z" fill="#E98862"/>
<path d="M214.822 109.133L214.874 109.124C215.943 108.907 216.999 108.627 218.04 108.285C219.593 107.762 221.628 106.895 221.372 105.397C221.08 103.69 213.554 86.135 212.697 84.1381C212.619 83.9703 212.482 83.8417 212.316 83.7795C212.151 83.7172 211.969 83.7261 211.809 83.8044C211.649 83.8826 211.524 84.0241 211.461 84.1989C211.397 84.3737 211.399 84.5682 211.466 84.7414C214.676 92.2178 219.843 104.509 220.04 105.658C219.863 106.188 217.284 107.179 214.63 107.701C214.46 107.736 214.308 107.841 214.207 107.992C214.107 108.143 214.064 108.33 214.089 108.514C214.113 108.698 214.203 108.865 214.339 108.98C214.476 109.095 214.649 109.15 214.822 109.133V109.133Z" fill="#0C0C0C"/>
<path d="M210.846 122.021C215.149 121.453 219.267 119.812 222.867 117.231C223.018 117.127 223.124 116.964 223.162 116.776C223.2 116.589 223.167 116.393 223.07 116.232C222.973 116.07 222.82 115.957 222.645 115.916C222.47 115.875 222.286 115.911 222.135 116.014C214.345 121.365 206.629 122.189 199.823 118.395C199.685 118.314 199.544 118.241 199.399 118.178C199.23 118.111 199.044 118.119 198.881 118.2C198.718 118.28 198.592 118.427 198.53 118.607C198.468 118.787 198.475 118.986 198.551 119.16C198.626 119.334 198.763 119.469 198.932 119.535C198.985 119.559 199.074 119.61 199.197 119.68C202.776 121.681 206.831 122.496 210.846 122.021V122.021Z" fill="#0C0C0C"/>
<path d="M127.359 95.1451L151.014 90.671C168.954 83.0522 174.557 49.9878 174.557 49.9878C174.557 49.9878 196.164 72.7659 248.914 60.2382C248.914 60.2382 238.804 -18.3227 160.85 3.98908C135.714 11.1829 117.55 38.0829 119.585 74.2094C121.012 99.5224 127.359 95.1451 127.359 95.1451Z" fill="#0A0A0A"/>
<path d="M156.326 121.702C148.306 123.269 140.235 115.372 138.768 106.803C137.301 98.2344 142.994 92.2374 151.014 90.671L156.129 95.6049L163.22 120.354L156.326 121.702Z" fill="#E98862"/>
<path d="M218.595 70.3658C220.618 68.8938 222.97 68.0203 225.412 67.8342C226.639 67.732 227.874 67.828 229.074 68.119C230.285 68.4069 231.457 68.8561 232.564 69.456L232.598 69.4734C232.721 69.5324 232.86 69.5382 232.986 69.4897C233.113 69.4411 233.216 69.342 233.276 69.2132C233.335 69.0844 233.345 68.936 233.304 68.7994C233.263 68.6627 233.174 68.5486 233.055 68.481C231.884 67.7913 230.636 67.2621 229.342 66.9059C228.038 66.5414 226.69 66.3882 225.343 66.4515C222.615 66.5611 219.964 67.4512 217.668 69.0288C217.582 69.0886 217.509 69.1658 217.451 69.256C217.394 69.3461 217.353 69.4475 217.333 69.5543C217.312 69.6611 217.311 69.7712 217.33 69.8784C217.349 69.9855 217.388 70.0876 217.444 70.1788C217.5 70.2701 217.572 70.3486 217.656 70.41C217.741 70.4714 217.836 70.5144 217.936 70.5366C218.035 70.5588 218.139 70.5598 218.239 70.5394C218.339 70.5191 218.435 70.4778 218.52 70.418L218.538 70.4049L218.595 70.3658Z" fill="#0C0C0C"/>
<path d="M197.009 73.1376C194.34 72.5183 191.565 72.6752 188.972 73.592C187.69 74.0364 186.478 74.6839 185.376 75.5127C184.279 76.3299 183.283 77.2919 182.411 78.3759C182.364 78.4287 182.328 78.4908 182.304 78.5587C182.279 78.6267 182.268 78.699 182.27 78.7717C182.274 78.9185 182.332 79.0576 182.432 79.1585C182.531 79.2594 182.665 79.3138 182.802 79.3097C182.939 79.3057 183.07 79.2434 183.164 79.1368L183.192 79.1063C184.031 78.1309 184.982 77.2723 186.023 76.5508C187.052 75.8283 188.177 75.2763 189.361 74.9138C191.712 74.1739 194.204 74.1128 196.584 74.7366L196.643 74.7529C196.843 74.8085 197.055 74.7772 197.233 74.6658C197.41 74.5544 197.54 74.372 197.592 74.1588C197.644 73.9456 197.614 73.7191 197.51 73.529C197.406 73.3389 197.235 73.2009 197.036 73.1452L197.009 73.1376Z" fill="#0C0C0C"/>
<path d="M211.719 128.818C212.499 128.729 213.27 128.569 214.024 128.339C214.197 128.287 214.343 128.164 214.431 127.997C214.519 127.829 214.541 127.632 214.493 127.447C214.444 127.262 214.329 127.106 214.172 127.012C214.016 126.918 213.831 126.895 213.658 126.946C209.119 128.31 206.554 126.447 206.446 126.367C206.3 126.256 206.118 126.211 205.941 126.243C205.764 126.275 205.606 126.381 205.502 126.537C205.398 126.693 205.357 126.887 205.386 127.076C205.416 127.266 205.515 127.434 205.661 127.545C207.482 128.705 209.623 129.155 211.719 128.818V128.818Z" fill="#0C0C0C"/>
<path d="M151.037 90.258C166.989 84.2577 172.441 72.6627 174.206 63.9916C175.349 58.2084 175.349 52.2339 174.206 46.4507L173.713 46.5855C174.838 52.2934 174.835 58.1896 173.703 63.896C171.962 72.4246 166.581 83.8316 150.865 89.7471L151.037 90.258Z" fill="#0C0C0C"/>
<path opacity="0.1" d="M193.563 111.193C197.021 110.818 199.617 108.317 199.359 105.607C199.102 102.896 196.09 101.003 192.631 101.377C189.173 101.752 186.578 104.253 186.835 106.964C187.092 109.674 190.104 111.567 193.563 111.193Z" fill="#0C0C0C"/>
<path opacity="0.1" d="M230.21 101.072C230.475 103.779 233.486 105.671 236.945 105.301C237.543 105.236 238.133 105.105 238.705 104.91C238.919 101.692 238.98 98.5941 238.939 95.7244C237.985 95.4504 236.991 95.3692 236.009 95.4853C232.55 95.8549 229.957 98.355 230.21 101.072Z" fill="#0C0C0C"/>
<path d="M77.8317 454.343L71.8242 511.18H289.639L286.28 453.985L77.8317 454.343Z" fill="#262626"/>
<path d="M181.055 211.314C146.371 209.568 144.911 178.114 144.911 178.114C144.911 178.114 127.726 179.301 116.301 180.952C97.5984 183.655 77.7712 190.518 68.7727 207.132C62.3043 219.08 60.7467 221.242 66.6311 288.658C70.8918 337.471 77.8322 454.345 77.8322 454.345L286.28 453.987C286.28 453.987 295.556 304.106 297.306 282.131C300.646 240.185 305.918 181.063 294.727 178.112C281.69 174.673 239.132 180.326 225.367 178.112C225.134 178.079 228.288 213.694 181.055 211.314Z" fill="#367CFF"/>
<path d="M550.487 46.8974C550.79 46.1658 551.23 45.5079 551.779 44.9638C552.328 44.4198 552.976 44.001 553.681 43.7331C554.387 43.4652 555.136 43.3537 555.884 43.4055C556.631 43.4572 557.361 43.6712 558.028 44.0342C559.298 44.7846 560.253 46.0219 560.701 47.496C561.149 48.9701 561.056 50.5709 560.441 51.9748L557.425 59.2479L576.805 40.9635C578.926 38.8905 582.77 37.7959 584.79 40.4917C585.629 41.4749 586.132 42.7331 586.216 44.0609C586.3 45.3888 585.961 46.7079 585.253 47.8029C585.278 47.8201 585.302 47.8405 585.323 47.8638C585.335 47.8826 585.345 47.9022 585.354 47.9225L588.626 44.7256C589.229 44.1376 589.946 43.6998 590.726 43.4436C591.506 43.1874 592.329 43.1192 593.137 43.2439C593.945 43.3687 594.716 43.6833 595.397 44.165C596.077 44.6468 596.648 45.2837 597.07 46.03C597.72 47.2359 597.96 48.6445 597.749 50.0175C597.538 51.3905 596.889 52.6434 595.913 53.564L594.521 54.9238C594.54 54.987 594.548 55.0533 594.544 55.1195C595.673 54.4392 596.989 54.2055 598.263 54.4595C599.536 54.7136 600.685 55.4392 601.508 56.5087C602.389 57.7402 602.799 59.2831 602.656 60.8254C602.512 62.3677 601.826 63.7943 600.736 64.8166L597.314 68.1603C597.395 68.1493 597.476 68.159 597.552 68.1885C597.629 68.218 597.697 68.2664 597.752 68.3298C597.814 68.4084 597.853 68.5048 597.865 68.607C599.007 68.3054 600.21 68.4023 601.297 68.8834C602.384 69.3645 603.299 70.2047 603.907 71.281C604.557 72.4869 604.796 73.8956 604.585 75.2686C604.374 76.6415 603.726 77.8944 602.749 78.8151L573.579 107.326C569.497 111.314 564.394 113.909 558.923 114.778C553.453 115.648 547.864 114.751 542.873 112.205L526.805 104.004L550.487 46.8974Z" fill="#E98862"/>
<g opacity="0.2">
<path opacity="0.2" d="M566.159 66.0069C566.25 66.1116 566.375 66.1741 566.508 66.181C566.641 66.1879 566.772 66.1387 566.871 66.0439L585.279 48.6312C585.329 48.5839 585.37 48.5265 585.399 48.4623C585.429 48.3981 585.446 48.3284 585.45 48.2572C585.454 48.1859 585.445 48.1145 585.423 48.047C585.401 47.9795 585.367 47.9172 585.323 47.8638C585.279 47.8103 585.225 47.7667 585.165 47.7354C585.105 47.7041 585.04 47.6858 584.973 47.6815C584.906 47.6771 584.839 47.6869 584.776 47.7101C584.713 47.7334 584.655 47.7697 584.605 47.817L566.191 65.2308C566.141 65.2782 566.1 65.3356 566.071 65.3998C566.041 65.4641 566.024 65.5338 566.02 65.6051C566.016 65.6763 566.026 65.7477 566.048 65.8152C566.069 65.8826 566.104 65.9448 566.148 65.9982L566.159 66.0069Z" fill="#0C0C0C"/>
</g>
<g opacity="0.2">
<path opacity="0.2" d="M573.123 74.8932C573.213 74.998 573.338 75.0607 573.472 75.0678C573.605 75.0749 573.735 75.0259 573.835 74.9312L594.378 55.4967C594.428 55.4494 594.469 55.392 594.498 55.3278C594.528 55.2636 594.545 55.1939 594.549 55.1226C594.553 55.0514 594.544 54.98 594.522 54.9125C594.5 54.845 594.466 54.7827 594.422 54.7293C594.33 54.6256 594.205 54.5632 594.071 54.5547C593.938 54.5462 593.807 54.5923 593.704 54.6836L573.159 74.117C573.109 74.1644 573.069 74.2219 573.039 74.2861C573.01 74.3503 572.993 74.42 572.989 74.4913C572.985 74.5625 572.994 74.634 573.016 74.7014C573.038 74.7689 573.072 74.8311 573.117 74.8845L573.123 74.8932Z" fill="#0C0C0C"/>
</g>
<g opacity="0.2">
<path opacity="0.2" d="M580.613 84.5642C580.703 84.669 580.828 84.7318 580.961 84.7389C581.095 84.746 581.225 84.6969 581.325 84.6023L597.713 69.1005C597.814 69.0048 597.876 68.8701 597.884 68.7261C597.892 68.5821 597.846 68.4405 597.756 68.3325C597.667 68.2246 597.541 68.1591 597.406 68.1504C597.271 68.1417 597.139 68.1906 597.038 68.2863L580.65 83.7881C580.6 83.8354 580.559 83.8928 580.53 83.957C580.501 84.0211 580.484 84.0908 580.479 84.1621C580.475 84.2334 580.485 84.3048 580.506 84.3723C580.528 84.4398 580.562 84.5021 580.606 84.5555L580.613 84.5642Z" fill="#0C0C0C"/>
</g>
<path d="M531.908 67.0537L421.438 163.741L268.519 178.481C258.713 179.359 249.603 184.252 243.094 192.138C236.584 200.024 233.178 210.292 233.588 220.798C233.997 231.303 238.19 241.233 245.291 248.513C252.392 255.793 261.851 259.86 271.692 259.864C272.77 259.864 273.855 259.815 274.947 259.716L439.869 243.892C447.681 243.186 455.1 239.925 461.116 234.554L576.81 124.89L531.908 67.0537Z" fill="#367CFF"/>
<path d="M556.405 61.9644L560.439 51.9748C561.054 50.5709 561.146 48.9701 560.698 47.496C560.25 46.0219 559.295 44.7846 558.026 44.0343C557.359 43.6712 556.629 43.4573 555.881 43.4055C555.134 43.3537 554.385 43.4652 553.679 43.7331C552.973 44.0011 552.326 44.4198 551.777 44.9639C551.227 45.5079 550.788 46.1658 550.484 46.8974" fill="#E98862"/>
<path d="M267.99 361.712C267.88 363.257 267.224 364.699 266.155 365.745C265.086 366.792 263.685 367.366 262.235 367.349L257.599 367.409C257.665 367.457 257.719 367.522 257.757 367.598C257.794 367.674 257.814 367.758 257.815 367.844C257.816 367.948 257.786 368.049 257.729 368.134C258.769 368.723 259.605 369.652 260.115 370.786C260.624 371.919 260.781 373.197 260.562 374.433C260.29 375.794 259.588 377.013 258.574 377.886C257.56 378.759 256.295 379.232 254.993 379.224L215.468 379.681C209.938 379.749 204.515 378.049 199.895 374.8C195.275 371.552 191.669 366.902 189.54 361.448L182.672 343.886L203.706 339.103L204.208 333.501L235.967 318.195C236.649 317.866 237.388 317.688 238.136 317.674C238.885 317.659 239.628 317.808 240.322 318.111C241.015 318.413 241.643 318.864 242.168 319.434C242.693 320.005 243.103 320.684 243.374 321.43C243.852 322.893 243.792 324.496 243.207 325.914C242.622 327.332 241.554 328.46 240.221 329.07L233.429 332.34L259.283 332.526C262.162 332.491 265.708 334.412 265.53 337.852C265.545 339.184 265.137 340.481 264.372 341.532C263.607 342.584 262.531 343.326 261.319 343.639C261.319 343.673 261.326 343.697 261.328 343.732L261.311 343.794L265.745 343.744C266.562 343.733 267.371 343.917 268.114 344.282C268.856 344.647 269.514 345.184 270.038 345.854C270.563 346.523 270.941 347.309 271.147 348.154C271.352 349 271.379 349.883 271.225 350.741C270.958 352.1 270.259 353.319 269.246 354.191C268.234 355.063 266.97 355.533 265.67 355.523L263.773 355.553C263.747 355.607 263.716 355.658 263.681 355.706C264.945 356.007 266.069 356.774 266.857 357.872C267.645 358.97 268.046 360.329 267.99 361.712V361.712Z" fill="#E98862"/>
<g opacity="0.2">
<path opacity="0.2" d="M235.719 343.603C235.721 343.746 235.776 343.882 235.871 343.981C235.966 344.081 236.094 344.137 236.227 344.137L260.814 344.274C260.949 344.274 261.078 344.217 261.174 344.115C261.269 344.013 261.323 343.875 261.323 343.731C261.323 343.586 261.269 343.448 261.174 343.346C261.078 343.244 260.949 343.187 260.814 343.187L236.227 343.05C236.093 343.05 235.963 343.107 235.868 343.209C235.772 343.311 235.719 343.45 235.719 343.594V343.603Z" fill="#0C0C0C"/>
</g>
<g opacity="0.2">
<path opacity="0.2" d="M235.359 355.188C235.362 355.33 235.416 355.466 235.512 355.566C235.607 355.665 235.735 355.721 235.868 355.721L263.306 355.875C263.441 355.875 263.57 355.817 263.666 355.715C263.761 355.614 263.815 355.475 263.815 355.331C263.81 355.188 263.755 355.053 263.661 354.952C263.567 354.851 263.44 354.792 263.306 354.788L235.868 354.635C235.733 354.635 235.604 354.693 235.508 354.795C235.413 354.897 235.359 355.035 235.359 355.179V355.188Z" fill="#0C0C0C"/>
</g>
<g opacity="0.2">
<path opacity="0.2" d="M234.908 367.732C234.911 367.874 234.965 368.01 235.06 368.11C235.156 368.209 235.284 368.265 235.417 368.265L257.303 368.387C257.438 368.387 257.568 368.33 257.663 368.228C257.758 368.126 257.812 367.988 257.812 367.844C257.812 367.699 257.758 367.561 257.663 367.459C257.568 367.357 257.438 367.3 257.303 367.3L235.417 367.178C235.282 367.178 235.153 367.236 235.057 367.338C234.962 367.439 234.908 367.578 234.908 367.722V367.732Z" fill="#0C0C0C"/>
</g>
<path d="M213.426 392.25L47.9382 423.747C40.9856 425.719 33.6529 425.55 26.7862 423.261C19.9194 420.971 13.7983 416.654 9.12914 410.807C4.45999 404.961 1.43301 397.823 0.397432 390.217C-0.638143 382.611 0.359885 374.848 3.27637 367.822L63.5435 218.033C72.0892 197.454 93.2105 188.172 112.468 197.302C121.717 201.685 128.957 209.815 132.596 219.903C136.234 229.99 135.974 241.209 131.871 251.091L96.4793 340.729L207.155 325.017L213.426 392.25Z" fill="#367CFF"/>
<path d="M76.4565 419.07C76.5041 419.07 76.5514 419.063 76.5969 419.048L213.565 392.773C213.693 392.733 213.801 392.643 213.866 392.52C213.932 392.397 213.95 392.251 213.916 392.114L207.646 322.705C207.613 322.567 207.53 322.449 207.416 322.375C207.302 322.302 207.166 322.279 207.036 322.312L97.3937 339.946L132.32 251.326C132.371 251.197 132.374 251.053 132.327 250.922C132.281 250.792 132.19 250.685 132.072 250.625C131.955 250.565 131.82 250.555 131.696 250.598C131.571 250.64 131.467 250.732 131.405 250.855L96.0203 340.493C95.9797 340.586 95.9643 340.688 95.9756 340.789C95.987 340.891 96.0247 340.986 96.0846 341.066C96.1444 341.145 96.2239 341.205 96.314 341.238C96.404 341.271 96.5011 341.277 96.5941 341.254L206.787 323.485L212.806 391.871L76.3151 418.007C76.1968 418.042 76.0947 418.123 76.0276 418.233C75.9605 418.343 75.9331 418.476 75.9503 418.606C75.9676 418.736 76.0284 418.855 76.1214 418.941C76.2145 419.027 76.3335 419.074 76.4565 419.073V419.07Z" fill="#0C0C0C"/>
<path d="M82.7822 343.228C82.8185 343.228 82.8546 343.224 82.89 343.215L96.5887 341.259C96.6545 341.244 96.717 341.216 96.7725 341.175C96.828 341.135 96.8754 341.083 96.912 341.022C96.9486 340.962 96.9737 340.895 96.9858 340.824C96.9978 340.753 96.9967 340.681 96.9824 340.611C96.968 340.541 96.9409 340.474 96.9023 340.415C96.8638 340.356 96.8148 340.306 96.758 340.268C96.7013 340.229 96.6379 340.203 96.5717 340.191C96.5054 340.179 96.4375 340.181 96.372 340.197L82.6733 342.153C82.5512 342.182 82.4434 342.259 82.3706 342.367C82.2977 342.476 82.2649 342.609 82.2783 342.742C82.2918 342.875 82.3507 342.998 82.4436 343.088C82.5365 343.177 82.6571 343.227 82.7822 343.227V343.228Z" fill="#0C0C0C"/>
<path d="M299.241 258.064C299.369 258.064 299.493 258.013 299.587 257.92C299.681 257.827 299.739 257.699 299.749 257.563L302.016 226.215C302.026 226.071 301.983 225.928 301.895 225.818C301.807 225.708 301.681 225.64 301.546 225.629C301.412 225.618 301.278 225.665 301.175 225.759C301.073 225.853 301.009 225.987 300.999 226.131L298.732 257.479C298.722 257.623 298.765 257.765 298.853 257.874C298.941 257.983 299.066 258.051 299.2 258.062C299.213 258.064 299.227 258.064 299.241 258.064Z" fill="#0C0C0C"/>
<path d="M229.896 80.6488C231.721 80.6488 233.201 79.0681 233.201 77.1182C233.201 75.1683 231.721 73.5876 229.896 73.5876C228.071 73.5876 226.592 75.1683 226.592 77.1182C226.592 79.0681 228.071 80.6488 229.896 80.6488Z" fill="#0C0C0C"/>
<path d="M196.402 86.6948C198.227 86.6948 199.706 85.1141 199.706 83.1642C199.706 81.2143 198.227 79.6336 196.402 79.6336C194.577 79.6336 193.098 81.2143 193.098 83.1642C193.098 85.1141 194.577 86.6948 196.402 86.6948Z" fill="#0C0C0C"/>
</svg>
