<svg width="605" height="512" viewBox="0 0 605 512" fill="none" xmlns="http://www.w3.org/2000/svg">
<path d="M84.9436 289.348L50.759 263.383C50.0077 262.813 49.1457 262.405 48.2281 262.186C47.3105 261.967 46.3573 261.941 45.4291 262.11C44.5009 262.279 43.6181 262.639 42.8368 263.167C42.0555 263.696 41.3928 264.381 40.8911 265.179C40.011 266.682 39.7206 268.458 40.0761 270.163C40.4317 271.867 41.4079 273.379 42.8155 274.406L50.1459 279.973L19.0541 273.038C15.6114 272.206 10.8524 273.387 10.1741 277.308C9.81447 278.8 9.97126 280.37 10.619 281.761C11.2668 283.153 12.3672 284.284 13.7409 284.97C13.725 285 13.7124 285.032 13.7033 285.065C13.7014 285.091 13.7014 285.117 13.7033 285.143L8.39258 283.861C7.40884 283.624 6.38458 283.61 5.39446 283.818C4.40434 284.027 3.47333 284.454 2.66928 285.068C1.86522 285.682 1.20836 286.467 0.746635 287.367C0.284914 288.267 0.0299436 289.258 0.000298253 290.269C-0.0144534 291.861 0.518408 293.41 1.50973 294.657C2.50105 295.904 3.89076 296.773 5.44641 297.119L7.70306 297.664C7.7179 297.736 7.74507 297.806 7.78333 297.869C6.17106 297.855 4.60628 298.414 3.36878 299.447C2.13129 300.48 1.30171 301.919 1.02834 303.506C0.779982 305.252 1.19962 307.028 2.20354 308.478C3.20745 309.928 4.72177 310.947 6.44431 311.331L12.0584 312.686C11.966 312.723 11.8837 312.781 11.8183 312.856C11.7529 312.931 11.7063 313.021 11.6823 313.117C11.6599 313.234 11.6716 313.354 11.7161 313.464C10.2765 313.85 9.00345 314.697 8.09285 315.876C7.18226 317.055 6.68453 318.5 6.67624 319.99C6.69944 321.554 7.25033 323.064 8.23962 324.277C9.22891 325.489 10.5987 326.333 12.1274 326.67L59.4847 338.103C66.1101 339.701 73.0621 339.286 79.4502 336.912C85.8383 334.537 91.3714 330.311 95.3406 324.775C98.7627 320.001 100.187 314.082 99.3102 308.275C98.4337 302.468 95.3258 297.232 90.6468 293.679L84.9436 289.348Z" fill="#E98862"/>
<g opacity="0.2">
<path opacity="0.2" d="M44.4829 291.988C44.4434 292.147 44.3432 292.284 44.2038 292.37C44.0644 292.456 43.8968 292.484 43.737 292.448L14.1745 285.808C14.0942 285.79 14.0182 285.756 13.9509 285.709C13.8836 285.662 13.8263 285.601 13.7823 285.532C13.7383 285.462 13.7085 285.385 13.6945 285.304C13.6804 285.222 13.6825 285.139 13.7006 285.059C13.7188 284.979 13.7525 284.903 13.8 284.836C13.8475 284.768 13.9077 284.711 13.9773 284.667C14.047 284.623 14.1246 284.593 14.2058 284.579C14.2869 284.565 14.3701 284.567 14.4504 284.586L44.0116 291.225C44.0922 291.243 44.1685 291.277 44.236 291.324C44.3035 291.372 44.3609 291.432 44.405 291.502C44.449 291.572 44.4788 291.65 44.4926 291.731C44.5064 291.813 44.504 291.896 44.4855 291.977L44.4829 291.988Z" fill="#0C0C0C"/>
</g>
<g opacity="0.2">
<path opacity="0.2" d="M41.9142 305.096C41.8747 305.256 41.7735 305.394 41.6326 305.481C41.4918 305.567 41.3227 305.594 41.1619 305.556L8.17063 298.152C8.09 298.134 8.01378 298.1 7.94627 298.053C7.87876 298.005 7.82128 297.945 7.77723 297.875C7.73319 297.805 7.70344 297.727 7.68962 297.646C7.6758 297.564 7.67821 297.481 7.69674 297.401C7.73835 297.241 7.83927 297.103 7.97902 297.015C8.11876 296.927 8.28679 296.896 8.44893 296.927L41.4403 304.331C41.5209 304.349 41.5972 304.383 41.6647 304.43C41.7322 304.478 41.7896 304.538 41.8336 304.608C41.8777 304.678 41.9075 304.756 41.9213 304.837C41.9352 304.919 41.9327 305.002 41.9142 305.082V305.096Z" fill="#0C0C0C"/>
</g>
<g opacity="0.2">
<path opacity="0.2" d="M39.2147 319.309C39.1751 319.468 39.0749 319.605 38.9355 319.691C38.7961 319.777 38.6285 319.805 38.4687 319.769L12.1524 313.864C11.9901 313.827 11.849 313.728 11.76 313.588C11.671 313.447 11.6414 313.278 11.6778 313.115C11.7142 312.953 11.8136 312.812 11.9541 312.723C12.0946 312.634 12.2647 312.605 12.4269 312.641L38.7433 318.547C38.824 318.564 38.9004 318.598 38.9681 318.646C39.0357 318.693 39.0933 318.754 39.1375 318.824C39.1817 318.893 39.2115 318.971 39.2254 319.053C39.2393 319.134 39.237 319.218 39.2185 319.298L39.2147 319.309Z" fill="#0C0C0C"/>
</g>
<path d="M371.398 72.6377C371.398 72.6377 355.862 55.2036 357.664 22.554C359.059 -2.72592 378.574 17.7185 378.574 17.7185C378.574 17.7185 379.757 -0.474782 392.324 3.85713C404.891 8.18903 408.42 28.2501 408.42 28.2501" fill="#0C0C0C"/>
<path d="M458.713 19.2356C458.713 19.2356 521.467 38.877 480.967 121.082L475.217 120.33L463.545 118.808" fill="#0C0C0C"/>
<path d="M369.444 206.79C369.732 206.753 372.922 259.642 434.413 255.032C476.983 251.846 492.161 206.716 493.137 206.716C488.547 205.74 480.818 204.324 478.779 203.236C472.076 199.637 463.782 195.893 461.621 182.886C460.376 175.388 462.489 137.036 461.839 129.45L396.494 144.023C397.408 160.043 403.798 197.181 381.399 203.754C377.673 204.841 373.655 205.841 369.444 206.79Z" fill="#E98862"/>
<path opacity="0.52" d="M395.578 188.577C396.602 185.281 397.26 181.882 397.543 178.443C398.262 170.594 398.119 162.69 397.117 154.873C410.398 153.082 422.911 147.605 433.232 139.063C434.445 143.541 441.118 163.106 439.27 167.361C435.779 175.405 419.366 188.577 395.578 188.577Z" fill="#0C0C0C"/>
<path d="M403.414 170.666C429.147 173.435 462.589 163.5 469.869 129.296L476.435 98.4325C483.706 64.2332 471.632 32.6809 439.4 25.8348C407.17 18.9887 377.18 41.6003 369.904 75.8046L366.996 89.468C366.08 94.1767 365.486 98.9422 365.219 103.731C364.418 116.384 363.249 135.632 369.093 149.973C374.608 163.513 386.973 168.896 403.414 170.666Z" fill="#E98862"/>
<path d="M382.972 91.867C385.214 91.867 387.031 90.0515 387.031 87.8119C387.031 85.5724 385.214 83.7569 382.972 83.7569C380.731 83.7569 378.914 85.5724 378.914 87.8119C378.914 90.0515 380.731 91.867 382.972 91.867Z" fill="#0C0C0C"/>
<path d="M421.516 95.9221C423.758 95.9221 425.574 94.1065 425.574 91.867C425.574 89.6274 423.758 87.8119 421.516 87.8119C419.275 87.8119 417.458 89.6274 417.458 91.867C417.458 94.1065 419.275 95.9221 421.516 95.9221Z" fill="#0C0C0C"/>
<path d="M465.649 139.291C475.444 141.372 485.612 132.588 487.694 122.8C489.777 113.013 482.984 105.93 473.19 103.849L466.747 109.335L457.228 137.502L465.649 139.291Z" fill="#E98862"/>
<path d="M459.032 121.579C459.032 121.579 465.396 72.396 451.268 66.4669C441.865 62.5183 415.305 71.6807 394.114 63.0958C384.844 59.3377 375.219 59.9014 373.382 64.2646C372.653 65.9921 371.813 38.9158 390.823 22.2797C405.958 9.03346 446.159 12.4496 463.025 21.141C509.726 45.2045 474.795 106.39 474.795 106.39L469.248 122.675L459.032 121.579Z" fill="#0C0C0C"/>
<g opacity="0.52">
<path opacity="0.52" d="M393.53 125.098L393.466 125.088C390.308 124.425 385.085 122.958 385.578 120.602C385.99 118.646 395.781 98.6555 396.899 96.3831C396.994 96.1875 397.164 96.0381 397.37 95.9676C397.577 95.8971 397.802 95.9114 397.998 96.0073C398.194 96.1031 398.343 96.2727 398.414 96.4787C398.484 96.6848 398.47 96.9104 398.374 97.1059C394.03 105.958 387.467 119.61 387.186 120.939C387.381 121.565 390.534 122.794 393.802 123.479C394.007 123.525 394.187 123.648 394.305 123.823C394.422 123.997 394.468 124.21 394.433 124.417C394.398 124.625 394.285 124.811 394.117 124.938C393.949 125.064 393.739 125.122 393.53 125.098Z" fill="#0C0C0C"/>
</g>
<path d="M392.801 75.1269C389.698 73.5624 386.231 72.8626 382.763 73.1013C381.059 73.2085 379.381 73.5704 377.785 74.1749C376.205 74.7656 374.707 75.5535 373.325 76.52C373.094 76.6669 372.93 76.8988 372.869 77.1655C372.807 77.4323 372.853 77.7125 372.997 77.9456C373.14 78.1787 373.37 78.346 373.636 78.4114C373.902 78.4768 374.183 78.435 374.418 78.2951L374.491 78.2538C375.758 77.4685 377.119 76.8456 378.542 76.3997C379.944 75.9519 381.406 75.7191 382.878 75.7095C385.788 75.6668 388.657 76.3933 391.195 77.8153L391.291 77.8717C391.468 77.9774 391.665 78.0471 391.87 78.0765C392.075 78.1059 392.283 78.0946 392.484 78.0432C392.684 77.9917 392.872 77.9012 393.037 77.7768C393.203 77.6524 393.341 77.4966 393.446 77.3183C393.551 77.14 393.619 76.9428 393.647 76.7381C393.675 76.5333 393.663 76.325 393.61 76.1251C393.557 75.9253 393.465 75.7379 393.339 75.5736C393.214 75.4094 393.057 75.2717 392.878 75.1683L392.801 75.1269Z" fill="#0C0C0C"/>
<path d="M416.006 81.3943C418.825 80.6717 421.785 80.7058 424.587 81.4933C426.006 81.8815 427.359 82.4816 428.599 83.2734C429.859 84.0702 431.014 85.0218 432.036 86.1059L432.093 86.1622C432.286 86.3495 432.544 86.4549 432.813 86.4566C433.083 86.4582 433.342 86.3559 433.538 86.171C433.733 85.9862 433.85 85.733 433.863 85.4643C433.876 85.1956 433.785 84.9322 433.609 84.7291C432.522 83.4407 431.277 82.2946 429.903 81.3179C428.515 80.3245 426.986 79.5441 425.367 79.0028C422.078 77.8804 418.547 77.664 415.145 78.3765C414.944 78.4203 414.753 78.5033 414.584 78.6208C414.415 78.7383 414.27 78.8879 414.159 79.0611C413.934 79.4109 413.858 79.8356 413.947 80.2418C414.035 80.648 414.282 81.0023 414.632 81.2269C414.982 81.4515 415.407 81.528 415.813 81.4394L415.894 81.4194L416.006 81.3943Z" fill="#0C0C0C"/>
<path d="M388.564 132.686C397.705 134.968 407.346 134.141 415.964 130.336C416.262 130.206 416.592 130.163 416.914 130.213C417.236 130.263 417.537 130.404 417.782 130.618C418.027 130.833 418.206 131.113 418.297 131.425C418.389 131.738 418.39 132.07 418.3 132.383C416.697 137.733 412.182 147.29 400.487 146.498C392.934 145.99 388.596 139.341 386.57 135.077C386.43 134.781 386.377 134.452 386.419 134.127C386.46 133.803 386.593 133.497 386.803 133.245C387.012 132.994 387.289 132.807 387.601 132.708C387.913 132.609 388.247 132.601 388.564 132.686Z" fill="white"/>
<path d="M424.835 29.287C429.203 19.0424 427.096 8.33379 420.131 5.36874C413.165 2.40369 403.978 8.30497 399.61 18.5496C395.242 28.7942 397.349 39.5027 404.314 42.4677C411.28 45.4328 420.467 39.5316 424.835 29.287Z" fill="#0C0C0C"/>
<path d="M435.37 242.059C478.11 240.046 479.909 203.798 479.909 203.798C479.909 203.798 501.086 205.165 515.165 207.068C538.213 210.184 553.418 217.993 565.518 230.083C576.775 241.332 583.626 253.5 576.375 331.192C571.124 387.446 574.82 511.181 574.82 511.181H314.363C314.363 511.181 296.176 332.423 294.02 307.099C289.904 258.758 278.279 248.086 301.833 223.185C318.914 205.125 363.013 203.798 380.765 203.8C381.052 203.8 377.165 244.802 435.37 242.059Z" fill="#367CFF"/>
<path d="M293.404 234.38L226.064 377.03L93.2653 277.243L40.5195 347.328L216.365 479.46C217.939 480.628 219.582 481.699 221.287 482.667C226.312 485.48 231.841 487.276 237.561 487.953C243.28 488.631 249.077 488.176 254.62 486.615C260.163 485.054 265.345 482.417 269.868 478.855C274.392 475.293 278.169 470.876 280.984 465.855L281.746 464.499L384.483 281.265L293.404 234.38Z" fill="#367CFF"/>
<path d="M346.404 428.731L307.197 411.234C306.336 410.85 305.404 410.649 304.46 410.644C303.517 410.64 302.583 410.832 301.718 411.207C300.853 411.583 300.075 412.135 299.435 412.828C298.795 413.52 298.306 414.339 298 415.23C297.485 416.894 297.607 418.689 298.342 420.268C299.077 421.847 300.373 423.097 301.978 423.775L310.386 427.533L278.526 427.861C274.985 427.835 270.621 430.069 270.855 434.041C270.845 435.576 271.355 437.069 272.303 438.276C273.251 439.484 274.581 440.334 276.075 440.689C276.066 440.722 276.061 440.756 276.059 440.791C276.063 440.817 276.068 440.842 276.075 440.867L270.613 440.828C269.602 440.822 268.602 441.04 267.686 441.469C266.77 441.897 265.961 442.524 265.318 443.304C264.675 444.084 264.215 444.997 263.97 445.978C263.725 446.958 263.702 447.981 263.902 448.971C264.251 450.525 265.123 451.912 266.373 452.901C267.622 453.889 269.174 454.419 270.767 454.402L273.093 454.418C273.124 454.485 273.166 454.547 273.218 454.599C271.645 454.953 270.249 455.853 269.28 457.14C268.31 458.427 267.831 460.017 267.926 461.625C268.082 463.382 268.895 465.016 270.204 466.2C271.512 467.384 273.219 468.032 274.985 468.014L280.759 468.055C280.678 468.111 280.611 468.186 280.564 468.273C280.517 468.36 280.491 468.457 280.488 468.556C280.493 468.674 280.531 468.789 280.6 468.886C279.286 469.589 278.24 470.704 277.623 472.059C277.005 473.414 276.85 474.935 277.181 476.387C277.561 477.904 278.442 479.249 279.682 480.204C280.921 481.159 282.447 481.668 284.013 481.648L332.732 481.995C339.547 482.044 346.222 480.057 351.9 476.29C357.578 472.524 362.001 467.148 364.602 460.853C366.845 455.426 366.882 449.338 364.705 443.884C362.528 438.43 358.308 434.038 352.942 431.643L346.404 428.731Z" fill="#E98862"/>
<g opacity="0.2">
<path opacity="0.2" d="M307.61 440.515C307.608 440.68 307.541 440.837 307.424 440.952C307.306 441.068 307.148 441.133 306.983 441.133L276.686 441.405C276.604 441.405 276.522 441.39 276.446 441.359C276.37 441.328 276.3 441.283 276.241 441.225C276.183 441.167 276.136 441.099 276.104 441.023C276.072 440.947 276.055 440.866 276.054 440.784C276.053 440.702 276.069 440.62 276.099 440.544C276.13 440.467 276.176 440.398 276.233 440.339C276.291 440.281 276.36 440.234 276.436 440.202C276.511 440.17 276.593 440.153 276.675 440.152L306.972 439.879C307.138 439.879 307.298 439.945 307.415 440.062C307.533 440.18 307.599 440.339 307.599 440.505L307.61 440.515Z" fill="#0C0C0C"/>
</g>
<g opacity="0.2">
<path opacity="0.2" d="M308.099 453.868C308.097 454.032 308.031 454.188 307.915 454.303C307.799 454.418 307.642 454.484 307.479 454.486L273.666 454.79C273.5 454.79 273.34 454.724 273.223 454.607C273.105 454.489 273.039 454.33 273.039 454.164C273.045 453.999 273.112 453.843 273.229 453.727C273.345 453.61 273.501 453.543 273.666 453.537L307.477 453.233C307.644 453.233 307.803 453.299 307.92 453.416C308.038 453.534 308.104 453.693 308.104 453.859L308.099 453.868Z" fill="#0C0C0C"/>
</g>
<g opacity="0.2">
<path opacity="0.2" d="M308.713 468.317C308.711 468.481 308.644 468.638 308.527 468.754C308.41 468.87 308.251 468.934 308.087 468.934L281.116 469.177C281.033 469.178 280.952 469.163 280.875 469.132C280.799 469.101 280.729 469.056 280.671 468.998C280.612 468.94 280.565 468.872 280.533 468.796C280.501 468.72 280.484 468.639 280.483 468.557C280.482 468.474 280.498 468.393 280.529 468.317C280.559 468.24 280.605 468.171 280.663 468.112C280.72 468.053 280.789 468.007 280.865 467.975C280.941 467.942 281.022 467.925 281.104 467.925L308.075 467.682C308.242 467.682 308.401 467.748 308.519 467.865C308.636 467.983 308.702 468.142 308.702 468.308L308.713 468.317Z" fill="#0C0C0C"/>
</g>
<path d="M347.72 498.486L552.558 510.28C559.78 511.066 567.085 510.168 573.901 507.659C580.717 505.149 586.858 501.095 591.843 495.816C596.828 490.536 600.52 484.174 602.631 477.229C604.741 470.284 605.213 462.945 604.008 455.787L579.137 255.847C578.113 249.763 575.899 243.941 572.623 238.712C569.346 233.483 565.071 228.95 560.042 225.372C555.012 221.794 549.327 219.241 543.31 217.859C537.293 216.476 531.062 216.291 524.974 217.315C518.885 218.339 513.058 220.55 507.826 223.824C502.593 227.098 498.056 231.37 494.475 236.395C490.894 241.421 488.339 247.102 486.956 253.114C485.572 259.126 485.387 265.352 486.412 271.436L498.391 423.309L348.618 417.97L347.72 498.486Z" fill="#367CFF"/>
<path d="M528.947 422.675C529.105 422.674 529.256 422.614 529.371 422.507C529.486 422.399 529.557 422.252 529.568 422.095C529.58 421.939 529.532 421.783 529.434 421.66C529.336 421.536 529.196 421.454 529.04 421.43L498.749 421.231C498.668 421.218 498.584 421.221 498.504 421.24C498.424 421.259 498.348 421.295 498.282 421.344C498.215 421.393 498.159 421.455 498.117 421.526C498.075 421.597 498.047 421.675 498.036 421.757C498.011 421.921 498.053 422.089 498.152 422.222C498.251 422.356 498.399 422.444 498.564 422.469L528.854 422.668C528.885 422.673 528.916 422.675 528.947 422.675Z" fill="#0C0C0C"/>
<path d="M546.039 511.181C546.205 511.192 546.369 511.136 546.494 511.026C546.619 510.916 546.695 510.761 546.706 510.595C546.717 510.429 546.661 510.265 546.551 510.14C546.441 510.015 546.286 509.939 546.119 509.929L349.082 498.194L349.673 418.897L498.544 422.467C498.641 422.479 498.739 422.469 498.832 422.437C498.924 422.405 499.008 422.352 499.077 422.282C499.145 422.211 499.196 422.126 499.225 422.032C499.254 421.938 499.261 421.839 499.245 421.742L490.825 331.208C490.812 331.126 490.783 331.048 490.74 330.978C490.696 330.908 490.639 330.847 490.572 330.799C490.505 330.751 490.429 330.717 490.348 330.699C490.267 330.681 490.184 330.68 490.103 330.694C490.021 330.708 489.944 330.737 489.874 330.781C489.804 330.824 489.743 330.881 489.695 330.948C489.647 331.015 489.613 331.091 489.595 331.171C489.576 331.252 489.574 331.335 489.587 331.416L497.868 421.111L349.387 417.515C349.306 417.493 349.222 417.487 349.139 417.498C349.057 417.509 348.977 417.536 348.904 417.578C348.832 417.62 348.769 417.677 348.719 417.744C348.669 417.81 348.633 417.887 348.612 417.968L347.717 498.484C347.679 498.642 347.703 498.809 347.786 498.949C347.869 499.089 348.003 499.192 348.16 499.235L545.953 511.169C545.981 511.175 546.01 511.179 546.039 511.181Z" fill="#0C0C0C"/>
</svg>
