<svg width="51" height="51" viewBox="0 0 51 51" fill="none" xmlns="http://www.w3.org/2000/svg">
<path d="M0 25.5C0 39.5833 11.4167 51 25.5 51C39.5833 51 51 39.5833 51 25.5C51 11.4167 39.5833 0 25.5 0C11.4167 0 0 11.4167 0 25.5Z" fill="#1DA1F2"/>
<path d="M38.25 17.5312C37.2938 18.0094 36.3375 18.1688 35.2219 18.3281C36.3375 17.6906 37.1344 16.7344 37.4531 15.4594C36.4969 16.0969 35.3812 16.4156 34.1062 16.7344C33.15 15.7781 31.7156 15.1406 30.2812 15.1406C26.9344 15.1406 24.3844 18.3281 25.1813 21.5156C20.8781 21.3562 17.0531 19.2844 14.3438 16.0969C12.9094 18.4875 13.7063 21.5156 15.9375 23.1094C15.1406 23.1094 14.3438 22.7906 13.5469 22.4719C13.5469 24.8625 15.3 27.0937 17.6906 27.7312C16.8938 27.8906 16.0969 28.05 15.3 27.8906C15.9375 29.9625 17.85 31.5562 20.2406 31.5562C18.3281 32.9906 15.4594 33.7875 12.75 33.4688C15.1406 34.9031 17.85 35.8594 20.7188 35.8594C30.4406 35.8594 35.8594 27.7312 35.5406 20.2406C36.6562 19.6031 37.6125 18.6469 38.25 17.5312Z" fill="white"/>
</svg>
