<svg width="51" height="51" viewBox="0 0 51 51" fill="none" xmlns="http://www.w3.org/2000/svg">
<path d="M0 25.5C0 39.5833 11.4167 51 25.5 51C39.5833 51 51 39.5833 51 25.5C51 11.4167 39.5833 0 25.5 0C11.4167 0 0 11.4167 0 25.5Z" fill="#FF0000"/>
<path d="M37.6125 19.2846C37.2938 18.1689 36.4969 17.3721 35.3813 17.0533C33.4688 16.5752 25.3406 16.5752 25.3406 16.5752C25.3406 16.5752 17.3719 16.5752 15.3 17.0533C14.1844 17.3721 13.3875 18.1689 13.0687 19.2846C12.75 21.3564 12.75 25.5002 12.75 25.5002C12.75 25.5002 12.75 29.6439 13.2281 31.7158C13.5469 32.8314 14.3437 33.6283 15.4594 33.9471C17.3719 34.4252 25.5 34.4252 25.5 34.4252C25.5 34.4252 33.4687 34.4252 35.5406 33.9471C36.6562 33.6283 37.4531 32.8314 37.7719 31.7158C38.25 29.6439 38.25 25.5002 38.25 25.5002C38.25 25.5002 38.25 21.3564 37.6125 19.2846ZM22.95 29.3252V21.6752L29.6438 25.5002L22.95 29.3252Z" fill="white"/>
</svg>
